<?xml version="1.0" encoding="utf-8"?>
<!-- Generator: Adobe Illustrator 25.2.0, SVG Export Plug-In . SVG Version: 6.00 Build 0)  -->
<svg version="1.1" id="Layer_1" xmlns="http://www.w3.org/2000/svg" xmlns:xlink="http://www.w3.org/1999/xlink" x="0px" y="0px"
	 viewBox="0 0 170 80" style="enable-background:new 0 0 170 80;" xml:space="preserve">
<style type="text/css">
	.st0{fill:none;}
	.st1{fill:#1C3F49;}
	.st2{fill:#097C44;}
</style>
<g>
	<path class="st1" d="M22.7,50.9V28.4H35v4.3h-7.9v5.2h6.8v4.3h-6.8v8.7H22.7z"/>
	<path class="st1" d="M44.5,51.2c-0.9,0-1.8-0.2-2.7-0.6c-0.9-0.4-1.7-0.9-2.3-1.6c-0.7-0.7-1.2-1.6-1.6-2.6c-0.4-1-0.6-2.2-0.6-3.5
		s0.2-2.5,0.6-3.5c0.4-1,0.9-1.9,1.6-2.6c0.7-0.7,1.4-1.2,2.3-1.6c0.9-0.4,1.8-0.6,2.7-0.6s1.8,0.2,2.7,0.6s1.6,0.9,2.3,1.6
		c0.7,0.7,1.2,1.6,1.6,2.6c0.4,1,0.6,2.2,0.6,3.5s-0.2,2.5-0.6,3.5c-0.4,1-0.9,1.9-1.6,2.6c-0.7,0.7-1.4,1.2-2.3,1.6
		S45.4,51.2,44.5,51.2z M44.5,47.5c0.9,0,1.6-0.4,2-1.2s0.7-1.9,0.7-3.3s-0.2-2.5-0.7-3.3s-1.1-1.2-2-1.2s-1.6,0.4-2.1,1.2
		s-0.7,1.9-0.7,3.3s0.2,2.5,0.7,3.3S43.5,47.5,44.5,47.5z"/>
	<path class="st1" d="M58.8,51.2c-0.8,0-1.4-0.1-1.9-0.4c-0.5-0.3-0.9-0.6-1.2-1.1s-0.5-1-0.7-1.7c-0.1-0.6-0.2-1.4-0.2-2.2V28.6
		h4.4v17.6c0,0.5,0.1,0.8,0.3,1c0.2,0.2,0.3,0.3,0.5,0.3c0.1,0,0.2,0,0.3,0s0.2,0,0.3-0.1l0.5,3.5c-0.2,0.1-0.5,0.2-0.9,0.3
		C59.8,51.2,59.3,51.2,58.8,51.2z"/>
	<path class="st1" d="M63.9,50.9V28.6h4.3v12.8h0.1l4.7-6.3h4.8l-5.2,6.5l5.6,9.3h-4.8L70,44.8l-1.9,2.3V51h-4.2V50.9z"/>
	<path class="st1" d="M86.6,51.2c-1.1,0-2.1-0.2-3-0.6s-1.7-0.9-2.4-1.6c-0.7-0.7-1.2-1.6-1.6-2.6S79,44.2,79,42.9s0.2-2.4,0.6-3.5
		c0.4-1,0.9-1.9,1.6-2.6c0.6-0.7,1.4-1.3,2.2-1.6c0.8-0.4,1.7-0.6,2.6-0.6c1.1,0,2,0.2,2.8,0.6s1.5,0.9,2,1.6
		c0.5,0.7,0.9,1.5,1.2,2.4c0.3,0.9,0.4,1.9,0.4,3c0,0.4,0,0.8-0.1,1.2c0,0.4-0.1,0.7-0.1,0.9h-8.9c0.2,1.1,0.6,2,1.3,2.5
		c0.7,0.5,1.5,0.8,2.5,0.8c1.1,0,2.1-0.3,3.2-1l1.5,2.8c-0.8,0.6-1.6,1-2.5,1.3C88.5,51.1,87.5,51.2,86.6,51.2z M83.3,41.3h5.4
		c0-0.9-0.2-1.6-0.6-2.2c-0.4-0.6-1-0.8-1.9-0.8c-0.7,0-1.3,0.2-1.8,0.7S83.5,40.2,83.3,41.3z"/>
</g>
<g id="ikoner_8_">
	<g id="ikoner-tjänster_8_" transform="translate(-85.000000, -304.000000)">
		<g id="lp-kartor_8_" transform="translate(85.000000, 304.000000)">
			<path id="Shape_8_" class="st2" d="M140.6,11.3c-8.1,0-14.8,6.4-14.8,14.4c0,3.6,1.4,6.9,3.6,9.3l0,0l0,0c0,0,5.8,6.4,8,8.4
				c1.8,1.7,4.6,1.7,6.3,0c2.5-2.3,8-8.4,8-8.4l0,0l0,0c2.2-2.5,3.6-5.8,3.6-9.3C155.3,17.7,148.7,11.3,140.6,11.3z M140.6,15.5
				c5.8,0,10.6,4.5,10.6,10.1c0,2.5-0.9,4.7-2.5,6.5l0,0c0,0-5.9,6.4-7.8,8.2c-0.1,0.1-0.2,0.1-0.3,0l0,0l0,0
				c-1.6-1.5-7.8-8.2-7.8-8.2c-1.6-1.8-2.5-4-2.5-6.5C130,19.9,134.8,15.5,140.6,15.5z M117.8,17.5c-0.5,0-1.1,0.2-1.5,0.6
				l-15.8,11.3c-0.5,0.4-0.9,1.1-0.9,1.7v30.1c0,0.8,0.4,1.6,1.2,1.9c0.3,0.1,0.6,0.2,0.9,0.2c0.4,0,0.9-0.1,1.3-0.4l14.8-10.6
				l14.8,10.6c0.7,0.5,1.8,0.5,2.5,0l16-11.4c0.5-0.4,0.9-1.1,0.9-1.7v-11c-1.3,1.4-3,3.2-4.4,4.6v5.2L135.8,57V46.4
				c-1.6-1.6-3.5-3.5-4.4-4.4v15.1l-11.7-8.3V23.9l3,2.1l0,0c0-1.7,0.2-3.3,0.7-4.7l-4.3-3.1l0,0C118.9,17.7,118.4,17.5,117.8,17.5z
				 M141.1,21.7c-2,0-3.7,1.6-3.7,3.7s1.7,3.7,3.7,3.7c2,0,3.7-1.6,3.7-3.7S143.1,21.7,141.1,21.7L141.1,21.7z M115.3,23.8v24.9
				l-11.6,8.4v-25L115.3,23.8z"/>
		</g>
	</g>
</g>
</svg>
