<?xml version="1.0" encoding="UTF-8"?>
<svg xmlns="http://www.w3.org/2000/svg" viewBox="0 0 346 184">
  <defs>
    <style>
      .cls-1 {
        fill: none;
        stroke: #fff;
        stroke-linecap: round;
        stroke-linejoin: round;
        stroke-width: 6px;
      }
    </style>
  </defs>
  <g id="Folke_vit" data-name="Folke vit">
    <path class="cls-1" d="m86.48,65.92c-4.08,8.59-6.97,17.68-10.35,26.56-7.82,20.53-18.29,39.93-28.73,59.26"/>
    <path class="cls-1" d="m49.9,118.19c7.27,3.5,15.75,3.06,23.78,2.21,24.41-2.56,36.59-4.55,59.67-12.91-11.91,3.56-26.57,21.63-20.33,26.89,9.7,8.17,22.32-14.85,20.33-26.89-30.66,25.84,63.56,19.74,63.56-29.27,0-7.2-13.52,7.38-22.53,22.46-8.54,14.31-21.33,37.86-10.66,41.14s64.56-48.47,94.35-75.91c-19.72,12-54.9,68.22-53.37,75.32-.44-2.04,24.91-34.06,41.79-33.5,1.72.06,3.68.63,4.4,2.19,2.22,4.83-4.74,8.01-8.17,9.19-6.25,2.15-12.76,2.99-19.33,1.99,2.74.02,5.46.93,7.66,2.56,7.2,5.32,9.61,15.85,18.35,19.24,6.76,2.62,14.23.5,20.43-2.61,3.26-1.63,27.96-17.92,23.71-23.44-4.68-6.09-30.32,8.83-23.32,18.64s29.07,8.6,42.97-4.89"/>
    <path class="cls-1" d="m44.51,81.61c-6.45-2.8-9.83-11.58-8.53-19.17,3.83-22.2,28.21-39.06,63.44-39.1,23.09-.02,38.13,11.73,40.22,23.09"/>
  </g>
  <g id="Folke_grön" data-name="Folke grön">
    <path class="cls-1" d="m86.48,65.92c-4.08,8.59-6.97,17.68-10.35,26.56-7.82,20.53-18.29,39.93-28.73,59.26"/>
    <path class="cls-1" d="m49.9,118.19c7.27,3.5,15.75,3.06,23.78,2.21,24.41-2.56,36.59-4.55,59.67-12.91-11.91,3.56-26.57,21.63-20.33,26.89,9.7,8.17,22.32-14.85,20.33-26.89-30.66,25.84,63.56,19.74,63.56-29.27,0-7.2-13.52,7.38-22.53,22.46-8.54,14.31-21.33,37.86-10.66,41.14s64.56-48.47,94.35-75.91c-19.72,12-54.9,68.22-53.37,75.32-.44-2.04,24.91-34.06,41.79-33.5,1.72.06,3.68.63,4.4,2.19,2.22,4.83-4.74,8.01-8.17,9.19-6.25,2.15-12.76,2.99-19.33,1.99,2.74.02,5.46.93,7.66,2.56,7.2,5.32,9.61,15.85,18.35,19.24,6.76,2.62,14.23.5,20.43-2.61,3.26-1.63,27.96-17.92,23.71-23.44-4.68-6.09-30.32,8.83-23.32,18.64s29.07,8.6,42.97-4.89"/>
    <path class="cls-1" d="m44.51,81.61c-6.45-2.8-9.83-11.58-8.53-19.17,3.83-22.2,28.21-39.06,63.44-39.1,23.09-.02,38.13,11.73,40.22,23.09"/>
  </g>
</svg>