<?xml version="1.0" encoding="UTF-8"?>
<svg width="144px" height="90px" viewBox="0 0 144 90" version="1.1" xmlns="http://www.w3.org/2000/svg" xmlns:xlink="http://www.w3.org/1999/xlink">
    <!-- Generator: Sketch 64 (93537) - https://sketch.com -->
    <title>Isof_logotyp</title>
    <desc>Created with Sketch.</desc>
    <g id="done" stroke="none" stroke-width="1" fill="none" fill-rule="evenodd">
        <g id="Innehållsida" transform="translate(-47.000000, -16.000000)">
            <g id="Isof_logotyp" transform="translate(47.000000, 16.000000)">
                <g>
                    <path d="M19.2700196,81.5767079 C19.2700196,77.0504157 22.8780755,73.3816517 27.3279776,73.3816517 C31.7778797,73.3816517 35.3859357,77.0504157 35.3859357,81.5767079 C35.3859357,86.103 31.7778797,89.771764 27.3279776,89.771764 C22.8780755,89.771764 19.2700196,86.103 19.2700196,81.5767079" id="Fill-1" fill="#FFFFFF"></path>
                    <path d="M9.11963077,20.7464157 L16.4646378,20.7464157 L16.4646378,69.7509101 L1.77462378,69.7509101 L1.77462378,28.213382 C1.77462378,28.213382 1.77462378,20.7807978 9.11963077,20.7464157" id="Fill-3" fill="#FFFFFF"></path>
                    <path d="M17.045572,9.10567416 C17.045572,13.6319663 13.4375161,17.3007303 8.98761399,17.3007303 C4.53771189,17.3007303 0.929655944,13.6319663 0.929655944,9.10567416 C0.929655944,4.57938202 4.53771189,0.910617978 8.98761399,0.910617978 C13.4375161,0.910617978 17.045572,4.57938202 17.045572,9.10567416" id="Fill-5" fill="#FFFFFF"></path>
                    <path d="M27.328179,69.7848876 L19.983172,69.7848876 L19.983172,20.7803933 L34.673186,20.7803933 L34.673186,62.3179213 C34.673186,62.3179213 34.673186,69.7505056 27.328179,69.7848876" id="Fill-7" fill="#FFFFFF"></path>
                    <path d="M42.9876252,69.5276292 L44.737779,69.5276292 L44.737779,61.7117865 L46.9279888,61.7117865 L46.9279888,60.2657191 L44.737779,60.2657191 L44.737779,59.8571798 C44.737779,58.1107753 45.9975273,57.8872921 46.6722126,57.8872921 C46.9461147,57.8872921 47.1283804,57.9247079 47.1283804,57.9247079 L47.1283804,56.386618 C47.1283804,56.386618 46.8554853,56.331 46.4536951,56.331 C45.2855832,56.331 42.9876252,56.7203258 42.9876252,59.8207753 L42.9876252,60.2657191 L41.8376392,60.2657191 L41.8376392,61.7117865 L42.9876252,61.7117865 L42.9876252,69.5276292 Z M47.769835,64.8132472 C47.769835,67.6730225 49.9952895,69.7501011 52.7524364,69.7501011 C55.5095832,69.7501011 57.7340308,67.6730225 57.7340308,64.8132472 C57.7340308,61.9716742 55.5095832,59.913809 52.7524364,59.913809 C49.9952895,59.913809 47.769835,61.9716742 47.769835,64.8132472 L47.769835,64.8132472 Z M49.5753734,64.8132472 C49.5753734,62.8635843 51.0173874,61.4711124 52.7524364,61.4711124 C54.5056112,61.4711124 55.9294993,62.8635843 55.9294993,64.8132472 C55.9294993,66.7821236 54.5056112,68.1927978 52.7524364,68.1927978 C51.0173874,68.1927978 49.5753734,66.7821236 49.5753734,64.8132472 L49.5753734,64.8132472 Z M59.5435972,66.968191 C59.5435972,69.3233596 61.019849,69.6014494 62.023821,69.6014494 C62.3339748,69.6014494 62.6078769,69.5650449 62.6078769,69.5650449 L62.6078769,67.9703258 C62.6078769,67.9703258 62.4618629,67.9895393 62.2977231,67.9895393 C61.7499189,67.9895393 61.3118769,67.7852697 61.3118769,66.6526854 L61.3118769,56.4230225 L59.5435972,56.4230225 L59.5435972,66.968191 Z M64.3076811,69.5276292 L66.0759608,69.5276292 L66.0759608,65.1095393 L67.4092196,65.1095393 L70.1834853,69.5276292 L72.245807,69.5276292 L68.8321007,64.3116742 L68.8321007,64.2752697 L71.8994014,60.1362809 L69.8914573,60.1362809 L67.3719608,63.5896517 L66.0759608,63.5896517 L66.0759608,56.4230225 L64.3076811,56.4230225 L64.3076811,69.5276292 Z M73.7270937,69.5276292 L75.4953734,69.5276292 L75.4953734,65.2389775 C75.4953734,64.812236 75.5134993,64.3854944 75.6051357,64.0143708 C75.9515413,62.6775169 76.9011357,61.5449326 78.2525203,61.5449326 C79.6774154,61.5449326 79.8596811,62.6775169 79.8596811,63.9021236 L79.8596811,69.5276292 L81.6279608,69.5276292 L81.6279608,65.2389775 C81.6279608,64.756618 81.6652196,64.3298764 81.755849,63.9395393 C82.0851357,62.6593146 83.0528559,61.5449326 84.3498629,61.5449326 C85.7374993,61.5449326 85.9932755,62.5844831 85.9932755,63.9021236 L85.9932755,69.5276292 L87.7615552,69.5276292 L87.7615552,63.5127978 C87.7615552,61.118191 86.795849,59.913809 84.7143944,59.913809 C83.2169958,59.913809 81.9391217,60.9149326 81.4275692,62.0465056 L81.3913175,62.0465056 C81.0811636,60.6368427 80.169835,59.913809 78.6180587,59.913809 C77.1750378,59.913809 75.8790378,60.9705506 75.4399888,62.0647079 L75.4037371,62.0647079 C75.4037371,62.0647079 75.4399888,61.7492022 75.4399888,61.3780787 L75.4399888,60.1362809 L73.7270937,60.1362809 L73.7270937,69.5276292 Z M90.2095552,58.259427 L91.9959608,58.259427 L91.9959608,56.4240337 L90.2095552,56.4240337 L90.2095552,58.259427 Z M90.2276811,69.5276292 L91.9959608,69.5276292 L91.9959608,60.1362809 L90.2276811,60.1362809 L90.2276811,69.5276292 Z M94.5899748,69.5276292 L96.3592615,69.5276292 L96.3592615,65.1277416 C96.3592615,64.6635843 96.3955133,64.2368427 96.5042685,63.8657191 C96.8879329,62.5106629 98.0208,61.5631348 99.4265622,61.5631348 C100.905835,61.5631348 101.179737,62.6026854 101.179737,63.9213371 L101.179737,69.5276292 L102.948017,69.5276292 L102.948017,63.5127978 C102.948017,61.118191 101.946059,59.913809 99.7739748,59.913809 C97.7650238,59.913809 96.6694154,61.2486404 96.3038769,62.0647079 L96.2676252,62.0647079 C96.2676252,62.0647079 96.3038769,61.7492022 96.3038769,61.3780787 L96.3038769,60.1362809 L94.5899748,60.1362809 L94.5899748,69.5276292 Z M105.41515,69.5276292 L107.183429,69.5276292 L107.183429,65.1277416 C107.183429,64.6635843 107.219681,64.2368427 107.329443,63.8657191 C107.713108,62.5106629 108.844968,61.5631348 110.251737,61.5631348 C111.730003,61.5631348 112.004912,62.6026854 112.004912,63.9213371 L112.004912,69.5276292 L113.773192,69.5276292 L113.773192,63.5127978 C113.773192,61.118191 112.770227,59.913809 110.598143,59.913809 C108.589192,59.913809 107.493583,61.2486404 107.129052,62.0647079 L107.091793,62.0647079 C107.091793,62.0647079 107.129052,61.7492022 107.129052,61.3780787 L107.129052,60.1362809 L105.41515,60.1362809 L105.41515,69.5276292 Z M115.600884,64.8314494 C115.600884,67.6174045 117.587681,69.7501011 120.491849,69.7501011 C122.701192,69.7501011 124.067681,68.4162809 124.067681,68.4162809 L123.338618,67.0976292 C123.338618,67.0976292 122.189639,68.1927978 120.601611,68.1927978 C118.958199,68.1927978 117.515178,67.1532472 117.423541,65.0903258 L124.159317,65.0903258 C124.159317,65.0903258 124.213695,64.5533596 124.213695,64.3126854 C124.213695,61.8796517 122.828073,59.913809 120.217947,59.913809 C117.587681,59.913809 115.600884,61.842236 115.600884,64.8314494 L115.600884,64.8314494 Z M117.477919,63.7383034 C117.733695,62.1951573 118.829303,61.3406629 120.180688,61.3406629 C121.367933,61.3406629 122.354786,62.1213371 122.409164,63.7383034 L117.477919,63.7383034 Z M126.187401,69.5276292 L127.955681,69.5276292 L127.955681,65.1277416 C127.955681,64.6635843 127.991933,64.2368427 128.101695,63.8657191 C128.485359,62.5106629 129.618227,61.5631348 131.023989,61.5631348 C132.503262,61.5631348 132.777164,62.6026854 132.777164,63.9213371 L132.777164,69.5276292 L134.545443,69.5276292 L134.545443,63.5127978 C134.545443,61.118191 133.542478,59.913809 131.371401,59.913809 C129.36245,59.913809 128.265835,61.2486404 127.901303,62.0647079 L127.865052,62.0647079 C127.865052,62.0647079 127.901303,61.7492022 127.901303,61.3780787 L127.901303,60.1362809 L126.187401,60.1362809 L126.187401,69.5276292 Z" id="Fill-9" fill="#FFFFFF"></path>
                    <path d="M41.7464056,50.586573 C41.7464056,50.586573 42.986014,51.957809 45.2497343,51.957809 C47.2768112,51.957809 48.5889231,50.7908427 48.5889231,49.2315169 C48.5889231,46.1482584 43.842965,46.519382 43.842965,44.8296067 C43.842965,44.0125281 44.5921678,43.6788202 45.3594965,43.6788202 C46.8206434,43.6788202 47.6413427,44.5141011 47.6413427,44.5141011 L48.3522797,43.1590449 C48.3522797,43.1590449 47.4046993,42.1215169 45.3776224,42.1215169 C43.5338182,42.1215169 42.0384336,43.0852247 42.0384336,44.7932022 C42.0384336,47.8572472 46.7843916,47.5043258 46.7843916,49.2315169 C46.7843916,49.9929775 46.0170629,50.4015169 45.2497343,50.4015169 C43.6425734,50.4015169 42.6033566,49.3053371 42.6033566,49.3053371 L41.7464056,50.586573 Z M50.4901259,55.4485955 L52.2584056,55.4485955 L52.2584056,51.2357865 C52.2584056,50.753427 52.2221538,50.4197191 52.2221538,50.4197191 L52.2584056,50.4197191 C52.2584056,50.4197191 53.061986,51.957809 55.0890629,51.957809 C57.4998042,51.957809 59.2680839,50.029382 59.2680839,47.0401685 C59.2680839,44.123764 57.7001958,42.1215169 55.216951,42.1215169 C52.8978462,42.1215169 52.1123916,43.8274719 52.1123916,43.8274719 L52.0761399,43.8274719 C52.0761399,43.8274719 52.1123916,43.5119663 52.1123916,43.1408427 L52.1123916,42.3439888 L50.4901259,42.3439888 L50.4901259,55.4485955 Z M52.204028,47.076573 C52.204028,44.6809551 53.4819021,43.6970225 54.8695385,43.6970225 C56.4041958,43.6970225 57.4816783,45.0156742 57.4816783,47.0583708 C57.4816783,49.1941011 56.2763077,50.4197191 54.8151608,50.4197191 C53.1163636,50.4197191 52.204028,48.7481461 52.204028,47.076573 L52.204028,47.076573 Z M61.2599161,51.7353371 L63.0281958,51.7353371 L63.0281958,47.8926404 C63.0281958,47.3172472 63.0825734,46.7418539 63.2467133,46.2028652 C63.6666294,44.8114045 64.7068531,43.9943258 65.8387133,43.9943258 C66.1126154,43.9943258 66.3502657,44.0499438 66.3502657,44.0499438 L66.3502657,42.2701685 C66.3502657,42.2701685 66.1307413,42.2327528 65.8940979,42.2327528 C64.4702098,42.2327528 63.3927273,43.3076966 62.9728112,44.6809551 L62.9365594,44.6809551 C62.9365594,44.6829775 62.9728112,44.3674719 62.9728112,43.9771348 L62.9728112,42.3439888 L61.2599161,42.3439888 L61.2599161,51.7353371 Z M67.173986,49.1010674 C67.173986,50.9758989 68.7237483,51.957809 70.3117762,51.957809 C72.5211189,51.957809 73.2703217,50.1042135 73.2703217,50.1042135 L73.3065734,50.1042135 C73.3065734,50.102191 73.2703217,50.4176966 73.2703217,50.8444382 L73.2703217,51.7353371 L74.9107133,51.7353371 L74.9107133,45.7973596 C74.9107133,43.4189326 73.5986014,42.1215169 71.2603636,42.1215169 C69.1436643,42.1215169 67.8114126,43.2338764 67.8114126,43.2338764 L68.5414825,44.5525281 C68.5414825,44.5525281 69.6924755,43.6414045 71.1143497,43.6414045 C72.2844755,43.6414045 73.1424336,44.162191 73.1424336,45.7043258 L73.1424336,45.8711798 L72.7406434,45.8711798 C71.1878601,45.8711798 67.173986,46.0016292 67.173986,49.1010674 L67.173986,49.1010674 Z M68.9603916,49.0080337 C68.9603916,47.3172472 71.3701259,47.2242135 72.7043916,47.2242135 L73.1605594,47.2242135 L73.1605594,47.5215169 C73.1605594,48.915 72.1928392,50.5127528 70.6944336,50.5127528 C69.5464615,50.5127528 68.9603916,49.7694944 68.9603916,49.0080337 L68.9603916,49.0080337 Z M71.3157483,41.209382 C72.1203357,41.209382 72.8665175,40.6916292 72.8665175,39.8371348 C72.8665175,38.963427 72.1203357,38.4456742 71.3157483,38.4456742 C70.494042,38.4456742 69.765986,38.963427 69.765986,39.8371348 C69.765986,40.6916292 70.494042,41.209382 71.3157483,41.209382 L71.3157483,41.209382 Z M71.3157483,40.4509551 C70.9502098,40.4509551 70.7125594,40.1900562 70.7125594,39.8371348 C70.7125594,39.4467978 70.9502098,39.1858989 71.3157483,39.1858989 C71.6641678,39.1858989 71.9199441,39.4467978 71.9199441,39.8371348 C71.9199441,40.1900562 71.6641678,40.4509551 71.3157483,40.4509551 L71.3157483,40.4509551 Z M77.3778462,51.7353371 L79.1461259,51.7353371 L79.1461259,47.3172472 L80.4783776,47.3172472 L83.2536503,51.7353371 L85.315972,51.7353371 L81.9022657,46.5203933 L81.9022657,46.4829775 L84.9685594,42.3439888 L82.9606154,42.3439888 L80.4421259,45.7973596 L79.1461259,45.7973596 L79.1461259,38.6317416 L77.3778462,38.6317416 L77.3778462,51.7353371 Z M90.6298741,47.0209551 C90.6298741,49.8817416 92.8543217,51.957809 95.6114685,51.957809 C98.3686154,51.957809 100.59407,49.8817416 100.59407,47.0209551 C100.59407,44.179382 98.3686154,42.1215169 95.6114685,42.1215169 C92.8543217,42.1215169 90.6298741,44.179382 90.6298741,47.0209551 L90.6298741,47.0209551 Z M92.4344056,47.0209551 C92.4344056,45.0712921 93.8764196,43.6788202 95.6114685,43.6788202 C97.3646434,43.6788202 98.7885315,45.0712921 98.7885315,47.0209551 C98.7885315,48.9898315 97.3646434,50.4015169 95.6114685,50.4015169 C93.8764196,50.4015169 92.4344056,48.9898315 92.4344056,47.0209551 L92.4344056,47.0209551 Z M101.855832,47.0401685 C101.855832,49.8625281 103.898014,51.957809 106.800168,51.957809 C109.209902,51.957809 110.487776,50.4571348 110.487776,50.4571348 L109.774825,49.1384831 C109.774825,49.1384831 108.643972,50.4015169 106.928056,50.4015169 C105.010741,50.4015169 103.660364,48.9342135 103.660364,47.0209551 C103.660364,45.0894944 105.010741,43.6788202 106.872671,43.6788202 C108.442573,43.6788202 109.42842,44.7557865 109.42842,44.7557865 L110.268252,43.493764 C110.268252,43.493764 109.118266,42.1215169 106.800168,42.1215169 C103.898014,42.1215169 101.855832,44.2542135 101.855832,47.0401685 L101.855832,47.0401685 Z M112.314462,51.7353371 L114.082741,51.7353371 L114.082741,47.3354494 C114.082741,46.8905056 114.12,46.4627528 114.229762,46.0916292 C114.61242,44.736573 115.763413,43.7708427 117.151049,43.7708427 C118.630322,43.7708427 118.904224,44.8114045 118.904224,46.1290449 L118.904224,51.7353371 L120.672503,51.7353371 L120.672503,45.7205056 C120.672503,43.3269101 119.670545,42.1215169 117.498462,42.1215169 C115.65365,42.1215169 114.485538,43.3076966 114.082741,44.2167978 L114.04649,44.2167978 C114.04649,44.2167978 114.082741,43.8830899 114.082741,43.4381461 L114.082741,38.6317416 L112.314462,38.6317416 L112.314462,51.7353371 Z" id="Fill-11" fill="#FFFFFF"></path>
                    <path d="M42.8596364,33.9431461 L44.6641678,33.9431461 L44.6641678,20.8385393 L42.8596364,20.8385393 L42.8596364,33.9431461 Z M47.6237203,33.9431461 L49.392,33.9431461 L49.392,29.5432584 C49.392,29.0791011 49.4282517,28.6523596 49.538014,28.281236 C49.9216783,26.9261798 51.0545455,25.9796629 52.4603077,25.9796629 C53.9395804,25.9796629 54.2134825,27.0192135 54.2134825,28.3368539 L54.2134825,33.9431461 L55.9817622,33.9431461 L55.9817622,27.9283146 C55.9817622,25.5347191 54.9787972,24.3293258 52.8067133,24.3293258 C50.7987692,24.3293258 49.7021538,25.6641573 49.3376224,26.4802247 L49.3013706,26.4802247 C49.3013706,26.4802247 49.3376224,26.1657303 49.3376224,25.7946067 L49.3376224,24.5517978 L47.6237203,24.5517978 L47.6237203,33.9431461 Z M57.6996923,32.794382 C57.6996923,32.794382 58.9403077,34.1666292 61.203021,34.1666292 C63.2300979,34.1666292 64.5432168,32.9986517 64.5432168,31.4393258 C64.5432168,28.3560674 59.7962517,28.7282022 59.7962517,27.0374157 C59.7962517,26.2203371 60.5454545,25.8866292 61.3127832,25.8866292 C62.7739301,25.8866292 63.5946294,26.7219101 63.5946294,26.7219101 L64.3055664,25.3678652 C64.3055664,25.3678652 63.357986,24.3293258 61.3309091,24.3293258 C59.4871049,24.3293258 57.9917203,25.2930337 57.9917203,27.0010112 C57.9917203,30.0650562 62.7376783,29.7121348 62.7376783,31.4393258 C62.7376783,32.2007865 61.9703497,32.6093258 61.203021,32.6093258 C59.5958601,32.6093258 58.5576503,31.5131461 58.5576503,31.5131461 L57.6996923,32.794382 Z M66.8270769,30.5110112 C66.8270769,33.6468539 69.1794126,34.0179775 70.3656503,34.0179775 C70.7311888,34.0179775 70.985958,33.9805618 70.985958,33.9805618 L70.985958,32.3858427 C70.985958,32.3858427 70.8218182,32.4232584 70.566042,32.4232584 C69.8913566,32.4232584 68.5953566,32.1825843 68.5953566,30.3067416 L68.5953566,26.1273034 L70.8218182,26.1273034 L70.8218182,24.6822472 L68.5953566,24.6822472 L68.5953566,21.9721348 L66.8814545,21.9721348 L66.8814545,24.6822472 L65.6217063,24.6822472 L65.6217063,26.1273034 L66.8270769,26.1273034 L66.8270769,30.5110112 Z M72.7773986,22.6749438 L74.5638042,22.6749438 L74.5638042,20.8395506 L72.7773986,20.8395506 L72.7773986,22.6749438 Z M72.7955245,33.9431461 L74.5638042,33.9431461 L74.5638042,24.5517978 L72.7955245,24.5517978 L72.7955245,33.9431461 Z M77.5414825,30.5110112 C77.5414825,33.6468539 79.8938182,34.0179775 81.0800559,34.0179775 C81.4455944,34.0179775 81.7013706,33.9805618 81.7013706,33.9805618 L81.7013706,32.3858427 C81.7013706,32.3858427 81.5362238,32.4232584 81.2814545,32.4232584 C80.6057622,32.4232584 79.3097622,32.1825843 79.3097622,30.3067416 L79.3097622,26.1273034 L81.5362238,26.1273034 L81.5362238,24.6822472 L79.3097622,24.6822472 L79.3097622,21.9721348 L77.5958601,21.9721348 L77.5958601,24.6822472 L76.3371189,24.6822472 L76.3371189,26.1273034 L77.5414825,26.1273034 L77.5414825,30.5110112 Z M83.382042,30.5666292 C83.382042,33.0542697 84.4575105,34.1666292 86.538965,34.1666292 C88.3465175,34.1666292 89.5518881,32.9430337 89.9355524,32.0147191 L89.9718042,32.0147191 C89.9718042,32.0126966 89.9355524,32.31 89.9355524,32.7003371 L89.9355524,33.9431461 L91.6494545,33.9431461 L91.6494545,24.5517978 L89.8811748,24.5517978 L89.8811748,28.9506742 C89.8811748,30.8083146 88.7664336,32.4980899 86.8853706,32.4980899 C85.4060979,32.4980899 85.1503217,31.4585393 85.1503217,30.1591011 L85.1503217,24.5517978 L83.382042,24.5517978 L83.382042,30.5666292 Z M94.6271329,30.5110112 C94.6271329,33.6468539 96.9794685,34.0179775 98.1657063,34.0179775 C98.5302378,34.0179775 98.786014,33.9805618 98.786014,33.9805618 L98.786014,32.3858427 C98.786014,32.3858427 98.6218741,32.4232584 98.3660979,32.4232584 C97.6904056,32.4232584 96.3954126,32.1825843 96.3954126,30.3067416 L96.3954126,26.1273034 L98.6218741,26.1273034 L98.6218741,24.6822472 L96.3954126,24.6822472 L96.3954126,21.9721348 L94.6815105,21.9721348 L94.6815105,24.6822472 L93.4217622,24.6822472 L93.4217622,26.1273034 L94.6271329,26.1273034 L94.6271329,30.5110112 Z M99.9561399,29.2469663 C99.9561399,32.0329213 101.943944,34.1666292 104.847105,34.1666292 C107.056448,34.1666292 108.423944,32.8317978 108.423944,32.8317978 L107.694881,31.5131461 C107.694881,31.5131461 106.545902,32.6093258 104.956867,32.6093258 C103.313455,32.6093258 101.870434,31.568764 101.779804,29.5068539 L108.51558,29.5068539 C108.51558,29.5068539 108.569958,28.9688764 108.569958,28.7282022 C108.569958,26.2951685 107.184336,24.3293258 104.573203,24.3293258 C101.943944,24.3293258 99.9561399,26.2577528 99.9561399,29.2469663 L99.9561399,29.2469663 Z M101.834182,28.1538202 C102.089958,26.6106742 103.185566,25.7561798 104.536951,25.7561798 C105.724196,25.7561798 106.710042,26.5368539 106.765427,28.1538202 L101.834182,28.1538202 Z M110.927329,30.5110112 C110.927329,33.6468539 113.279664,34.0179775 114.465902,34.0179775 C114.830434,34.0179775 115.08621,33.9805618 115.08621,33.9805618 L115.08621,32.3858427 C115.08621,32.3858427 114.92207,32.4232584 114.666294,32.4232584 C113.991608,32.4232584 112.695608,32.1825843 112.695608,30.3067416 L112.695608,26.1273034 L114.92207,26.1273034 L114.92207,24.6822472 L112.695608,24.6822472 L112.695608,21.9721348 L110.981706,21.9721348 L110.981706,24.6822472 L109.721958,24.6822472 L109.721958,26.1273034 L110.927329,26.1273034 L110.927329,30.5110112 Z M121.896503,33.9431461 L123.646657,33.9431461 L123.646657,26.1273034 L125.837874,26.1273034 L125.837874,24.6822472 L123.646657,24.6822472 L123.646657,24.2737079 C123.646657,22.5262921 124.906406,22.3038202 125.582098,22.3038202 C125.856,22.3038202 126.038266,22.3402247 126.038266,22.3402247 L126.038266,20.8021348 C126.038266,20.8021348 125.764364,20.7465169 125.362573,20.7465169 C124.194462,20.7465169 121.896503,21.1358427 121.896503,24.2362921 L121.896503,24.6822472 L120.746517,24.6822472 L120.746517,26.1273034 L121.896503,26.1273034 L121.896503,33.9431461 Z M126.67972,29.228764 C126.67972,32.0885393 128.905175,34.1666292 131.661315,34.1666292 C134.418462,34.1666292 136.643916,32.0885393 136.643916,29.228764 C136.643916,26.3882022 134.418462,24.3293258 131.661315,24.3293258 C128.905175,24.3293258 126.67972,26.3882022 126.67972,29.228764 L126.67972,29.228764 Z M128.484252,29.228764 C128.484252,27.2791011 129.92828,25.8866292 131.661315,25.8866292 C133.413483,25.8866292 134.838378,27.2791011 134.838378,29.228764 C134.838378,31.1976404 133.413483,32.6093258 131.661315,32.6093258 C129.92828,32.6093258 128.484252,31.1976404 128.484252,29.228764 L128.484252,29.228764 Z M132.465902,22.7123596 L133.924028,22.7123596 L133.924028,20.8395506 L132.465902,20.8395506 L132.465902,22.7123596 Z M129.417734,22.7123596 L130.87586,22.7123596 L130.87586,20.8395506 L129.417734,20.8395506 L129.417734,22.7123596 Z M138.562238,33.9431461 L140.330517,33.9431461 L140.330517,30.1004494 C140.330517,29.5250562 140.385902,28.9496629 140.550042,28.4116854 C140.969958,27.0192135 142.010182,26.2021348 143.142042,26.2021348 C143.415944,26.2021348 143.652587,26.2577528 143.652587,26.2577528 L143.652587,24.4779775 C143.652587,24.4779775 143.43407,24.4405618 143.19642,24.4405618 C141.773538,24.4405618 140.696056,25.5165169 140.27614,26.888764 L140.239888,26.888764 C140.239888,26.8907865 140.27614,26.5752809 140.27614,26.1859551 L140.27614,24.5517978 L138.562238,24.5517978 L138.562238,33.9431461 Z" id="Fill-13" fill="#FFFFFF"></path>
                </g>
            </g>
        </g>
    </g>
</svg>
