<?xml version="1.0" encoding="UTF-8"?>
<svg width="144px" height="90px" viewBox="0 0 144 90" version="1.1" xmlns="http://www.w3.org/2000/svg" xmlns:xlink="http://www.w3.org/1999/xlink">
    <title>logo</title>
    <g id="Page-1" stroke="none" stroke-width="1" fill="none" fill-rule="evenodd">
        <g id="logo" transform="translate(0.929656, 0.910618)" fill="#FFFFFF" fill-rule="nonzero">
            <path d="M18.3403637,80.6660899 C18.3403637,76.1397977 21.9484196,72.4710337 26.3983217,72.4710337 C30.8482238,72.4710337 34.4562798,76.1397977 34.4562798,80.6660899 C34.4562798,85.192382 30.8482238,88.861146 26.3983217,88.861146 C21.9484196,88.861146 18.3403637,85.192382 18.3403637,80.6660899" id="Fill-1"></path>
            <path d="M8.18997483,19.8357977 L15.5349819,19.8357977 L15.5349819,68.8402921 L0.844967836,68.8402921 L0.844967836,27.302764 C0.844967836,27.302764 0.844967836,19.8701798 8.18997483,19.8357977" id="Fill-3"></path>
            <path d="M16.1159161,8.19505618 C16.1159161,12.7213483 12.5078602,16.3901123 8.05795805,16.3901123 C3.60805595,16.3901123 -3.55271368e-15,12.7213483 -3.55271368e-15,8.19505618 C-3.55271368e-15,3.66876404 3.60805595,1.77635684e-15 8.05795805,1.77635684e-15 C12.5078602,1.77635684e-15 16.1159161,3.66876404 16.1159161,8.19505618" id="Fill-5"></path>
            <path d="M26.3985231,68.8742696 L19.0535161,68.8742696 L19.0535161,19.8697753 L33.7435301,19.8697753 L33.7435301,61.4073033 C33.7435301,61.4073033 33.7435301,68.8398876 26.3985231,68.8742696" id="Fill-7"></path>
            <path d="M42.0579693,68.6170112 L43.8081231,68.6170112 L43.8081231,60.8011685 L45.9983329,60.8011685 L45.9983329,59.3551011 L43.8081231,59.3551011 L43.8081231,58.9465618 C43.8081231,57.2001573 45.0678714,56.9766741 45.7425567,56.9766741 C46.0164588,56.9766741 46.1987245,57.0140899 46.1987245,57.0140899 L46.1987245,55.476 C46.1987245,55.476 45.9258294,55.420382 45.5240392,55.420382 C44.3559273,55.420382 42.0579693,55.8097078 42.0579693,58.9101573 L42.0579693,59.3551011 L40.9079833,59.3551011 L40.9079833,60.8011685 L42.0579693,60.8011685 L42.0579693,68.6170112 Z M46.8401791,63.9026292 C46.8401791,66.7624045 49.0656336,68.8394831 51.8227805,68.8394831 C54.5799273,68.8394831 56.8043749,66.7624045 56.8043749,63.9026292 C56.8043749,61.0610562 54.5799273,59.003191 51.8227805,59.003191 C49.0656336,59.003191 46.8401791,61.0610562 46.8401791,63.9026292 L46.8401791,63.9026292 Z M48.6457175,63.9026292 C48.6457175,61.9529663 50.0877315,60.5604944 51.8227805,60.5604944 C53.5759553,60.5604944 54.9998434,61.9529663 54.9998434,63.9026292 C54.9998434,65.8715056 53.5759553,67.2821798 51.8227805,67.2821798 C50.0877315,67.2821798 48.6457175,65.8715056 48.6457175,63.9026292 L48.6457175,63.9026292 Z M58.6139413,66.057573 C58.6139413,68.4127416 60.0901931,68.6908314 61.0941651,68.6908314 C61.4043189,68.6908314 61.678221,68.6544269 61.678221,68.6544269 L61.678221,67.0597078 C61.678221,67.0597078 61.532207,67.0789213 61.3680672,67.0789213 C60.820263,67.0789213 60.382221,66.8746517 60.382221,65.7420674 L60.382221,55.5124045 L58.6139413,55.5124045 L58.6139413,66.057573 Z M63.3780252,68.6170112 L65.1463049,68.6170112 L65.1463049,64.1989213 L66.4795637,64.1989213 L69.2538294,68.6170112 L71.3161511,68.6170112 L67.9024448,63.4010562 L67.9024448,63.3646517 L70.9697455,59.2256629 L68.9618014,59.2256629 L66.4423049,62.6790337 L65.1463049,62.6790337 L65.1463049,55.5124045 L63.3780252,55.5124045 L63.3780252,68.6170112 Z M72.7974378,68.6170112 L74.5657175,68.6170112 L74.5657175,64.3283595 C74.5657175,63.901618 74.5838434,63.4748764 74.6754798,63.1037528 C75.0218854,61.7668989 75.9714798,60.6343146 77.3228644,60.6343146 C78.7477595,60.6343146 78.9300252,61.7668989 78.9300252,62.9915056 L78.9300252,68.6170112 L80.6983049,68.6170112 L80.6983049,64.3283595 C80.6983049,63.846 80.7355637,63.4192584 80.8261931,63.0289213 C81.1554798,61.7486966 82.1232,60.6343146 83.420207,60.6343146 C84.8078434,60.6343146 85.0636196,61.6738651 85.0636196,62.9915056 L85.0636196,68.6170112 L86.8318993,68.6170112 L86.8318993,62.6021798 C86.8318993,60.207573 85.8661931,59.003191 83.7847385,59.003191 C82.2873399,59.003191 81.0094658,60.0043146 80.4979133,61.1358876 L80.4616616,61.1358876 C80.1515077,59.7262247 79.2401791,59.003191 77.6884028,59.003191 C76.2453819,59.003191 74.9493819,60.0599326 74.5103329,61.1540899 L74.4740812,61.1540899 C74.4740812,61.1540899 74.5103329,60.8385842 74.5103329,60.4674607 L74.5103329,59.2256629 L72.7974378,59.2256629 L72.7974378,68.6170112 Z M89.2798993,57.348809 L91.0663049,57.348809 L91.0663049,55.5134157 L89.2798993,55.5134157 L89.2798993,57.348809 Z M89.2980252,68.6170112 L91.0663049,68.6170112 L91.0663049,59.2256629 L89.2980252,59.2256629 L89.2980252,68.6170112 Z M93.6603189,68.6170112 L95.4296056,68.6170112 L95.4296056,64.2171236 C95.4296056,63.7529663 95.4658574,63.3262247 95.5746126,62.9551011 C95.958277,61.6000449 97.0911441,60.6525168 98.4969063,60.6525168 C99.9761791,60.6525168 100.250081,61.6920674 100.250081,63.0107191 L100.250081,68.6170112 L102.018361,68.6170112 L102.018361,62.6021798 C102.018361,60.207573 101.016403,59.003191 98.8443189,59.003191 C96.8353679,59.003191 95.7397595,60.3380224 95.374221,61.1540899 L95.3379693,61.1540899 C95.3379693,61.1540899 95.374221,60.8385842 95.374221,60.4674607 L95.374221,59.2256629 L93.6603189,59.2256629 L93.6603189,68.6170112 Z M104.485494,68.6170112 L106.253773,68.6170112 L106.253773,64.2171236 C106.253773,63.7529663 106.290025,63.3262247 106.399787,62.9551011 C106.783452,61.6000449 107.915312,60.6525168 109.322081,60.6525168 C110.800347,60.6525168 111.075256,61.6920674 111.075256,63.0107191 L111.075256,68.6170112 L112.843536,68.6170112 L112.843536,62.6021798 C112.843536,60.207573 111.840571,59.003191 109.668487,59.003191 C107.659536,59.003191 106.563927,60.3380224 106.199396,61.1540899 L106.162137,61.1540899 C106.162137,61.1540899 106.199396,60.8385842 106.199396,60.4674607 L106.199396,59.2256629 L104.485494,59.2256629 L104.485494,68.6170112 Z M114.671228,63.9208314 C114.671228,66.7067865 116.658025,68.8394831 119.562193,68.8394831 C121.771536,68.8394831 123.138025,67.5056629 123.138025,67.5056629 L122.408962,66.1870112 C122.408962,66.1870112 121.259983,67.2821798 119.671955,67.2821798 C118.028543,67.2821798 116.585522,66.2426292 116.493885,64.1797078 L123.229661,64.1797078 C123.229661,64.1797078 123.284039,63.6427416 123.284039,63.4020674 C123.284039,60.9690337 121.898417,59.003191 119.288291,59.003191 C116.658025,59.003191 114.671228,60.931618 114.671228,63.9208314 L114.671228,63.9208314 Z M116.548263,62.8276854 C116.804039,61.2845393 117.899647,60.4300449 119.251032,60.4300449 C120.438277,60.4300449 121.42513,61.2107191 121.479508,62.8276854 L116.548263,62.8276854 Z M125.257745,68.6170112 L127.026025,68.6170112 L127.026025,64.2171236 C127.026025,63.7529663 127.062277,63.3262247 127.172039,62.9551011 C127.555703,61.6000449 128.688571,60.6525168 130.094333,60.6525168 C131.573606,60.6525168 131.847508,61.6920674 131.847508,63.0107191 L131.847508,68.6170112 L133.615787,68.6170112 L133.615787,62.6021798 C133.615787,60.207573 132.612822,59.003191 130.441745,59.003191 C128.432794,59.003191 127.336179,60.3380224 126.971647,61.1540899 L126.935396,61.1540899 C126.935396,61.1540899 126.971647,60.8385842 126.971647,60.4674607 L126.971647,59.2256629 L125.257745,59.2256629 L125.257745,68.6170112 Z" id="Fill-9"></path>
            <path d="M40.8167497,49.675955 C40.8167497,49.675955 42.0563581,51.047191 44.3200784,51.047191 C46.3471553,51.047191 47.6592672,49.8802247 47.6592672,48.3208989 C47.6592672,45.2376404 42.9133091,45.608764 42.9133091,43.9189887 C42.9133091,43.1019101 43.6625119,42.7682022 44.4298406,42.7682022 C45.8909875,42.7682022 46.7116868,43.6034831 46.7116868,43.6034831 L47.4226238,42.2484269 C47.4226238,42.2484269 46.4750434,41.2108989 44.4479665,41.2108989 C42.6041623,41.2108989 41.1087777,42.1746067 41.1087777,43.8825842 C41.1087777,46.9466292 45.8547357,46.5937078 45.8547357,48.3208989 C45.8547357,49.0823595 45.087407,49.4908989 44.3200784,49.4908989 C42.7129175,49.4908989 41.6737007,48.3947191 41.6737007,48.3947191 L40.8167497,49.675955 Z M49.56047,54.5379775 L51.3287497,54.5379775 L51.3287497,50.3251685 C51.3287497,49.842809 51.2924979,49.5091011 51.2924979,49.5091011 L51.3287497,49.5091011 C51.3287497,49.5091011 52.1323301,51.047191 54.159407,51.047191 C56.5701483,51.047191 58.338428,49.118764 58.338428,46.1295505 C58.338428,43.213146 56.7705399,41.2108989 54.2872951,41.2108989 C51.9681903,41.2108989 51.1827357,42.9168539 51.1827357,42.9168539 L51.146484,42.9168539 C51.146484,42.9168539 51.1827357,42.6013483 51.1827357,42.2302247 L51.1827357,41.4333708 L49.56047,41.4333708 L49.56047,54.5379775 Z M51.2743721,46.165955 C51.2743721,43.7703371 52.5522462,42.7864045 53.9398826,42.7864045 C55.4745399,42.7864045 56.5520224,44.1050562 56.5520224,46.1477528 C56.5520224,48.2834831 55.3466518,49.5091011 53.8855049,49.5091011 C52.1867077,49.5091011 51.2743721,47.8375281 51.2743721,46.165955 L51.2743721,46.165955 Z M60.3302602,50.8247191 L62.0985399,50.8247191 L62.0985399,46.9820224 C62.0985399,46.4066292 62.1529175,45.8312359 62.3170574,45.2922472 C62.7369735,43.9007865 63.7771972,43.0837078 64.9090574,43.0837078 C65.1829595,43.0837078 65.4206098,43.1393258 65.4206098,43.1393258 L65.4206098,41.3595505 C65.4206098,41.3595505 65.2010854,41.3221348 64.964442,41.3221348 C63.5405539,41.3221348 62.4630714,42.3970786 62.0431553,43.7703371 L62.0069035,43.7703371 C62.0069035,43.7723595 62.0431553,43.4568539 62.0431553,43.0665168 L62.0431553,41.4333708 L60.3302602,41.4333708 L60.3302602,50.8247191 Z M66.2443301,48.1904494 C66.2443301,50.0652809 67.7940924,51.047191 69.3821203,51.047191 C71.591463,51.047191 72.3406658,49.1935955 72.3406658,49.1935955 L72.3769175,49.1935955 C72.3769175,49.191573 72.3406658,49.5070786 72.3406658,49.9338202 L72.3406658,50.8247191 L73.9810574,50.8247191 L73.9810574,44.8867416 C73.9810574,42.5083146 72.6689455,41.2108989 70.3307077,41.2108989 C68.2140084,41.2108989 66.8817567,42.3232584 66.8817567,42.3232584 L67.6118266,43.6419101 C67.6118266,43.6419101 68.7628196,42.7307865 70.1846938,42.7307865 C71.3548196,42.7307865 72.2127777,43.251573 72.2127777,44.7937078 L72.2127777,44.9605618 L71.8109875,44.9605618 C70.2582042,44.9605618 66.2443301,45.0910112 66.2443301,48.1904494 L66.2443301,48.1904494 Z M68.0307357,48.0974157 C68.0307357,46.4066292 70.44047,46.3135955 71.7747357,46.3135955 L72.2309035,46.3135955 L72.2309035,46.6108989 C72.2309035,48.004382 71.2631833,49.6021348 69.7647777,49.6021348 C68.6168056,49.6021348 68.0307357,48.8588764 68.0307357,48.0974157 L68.0307357,48.0974157 Z M70.3860924,40.298764 C71.1906798,40.298764 71.9368616,39.7810112 71.9368616,38.9265168 C71.9368616,38.052809 71.1906798,37.5350562 70.3860924,37.5350562 C69.5643861,37.5350562 68.8363301,38.052809 68.8363301,38.9265168 C68.8363301,39.7810112 69.5643861,40.298764 70.3860924,40.298764 L70.3860924,40.298764 Z M70.3860924,39.5403371 C70.0205539,39.5403371 69.7829035,39.2794382 69.7829035,38.9265168 C69.7829035,38.5361798 70.0205539,38.2752809 70.3860924,38.2752809 C70.7345119,38.2752809 70.9902882,38.5361798 70.9902882,38.9265168 C70.9902882,39.2794382 70.7345119,39.5403371 70.3860924,39.5403371 L70.3860924,39.5403371 Z M76.4481903,50.8247191 L78.21647,50.8247191 L78.21647,46.4066292 L79.5487217,46.4066292 L82.3239944,50.8247191 L84.3863161,50.8247191 L80.9726098,45.6097753 L80.9726098,45.5723595 L84.0389035,41.4333708 L82.0309595,41.4333708 L79.51247,44.8867416 L78.21647,44.8867416 L78.21647,37.7211236 L76.4481903,37.7211236 L76.4481903,50.8247191 Z M89.7002182,46.1103371 C89.7002182,48.9711236 91.9246658,51.047191 94.6818126,51.047191 C97.4389595,51.047191 99.6644141,48.9711236 99.6644141,46.1103371 C99.6644141,43.268764 97.4389595,41.2108989 94.6818126,41.2108989 C91.9246658,41.2108989 89.7002182,43.268764 89.7002182,46.1103371 L89.7002182,46.1103371 Z M91.5047497,46.1103371 C91.5047497,44.1606741 92.9467637,42.7682022 94.6818126,42.7682022 C96.4349875,42.7682022 97.8588756,44.1606741 97.8588756,46.1103371 C97.8588756,48.0792135 96.4349875,49.4908989 94.6818126,49.4908989 C92.9467637,49.4908989 91.5047497,48.0792135 91.5047497,46.1103371 L91.5047497,46.1103371 Z M100.926176,46.1295505 C100.926176,48.9519101 102.968358,51.047191 105.870512,51.047191 C108.280246,51.047191 109.55812,49.5465168 109.55812,49.5465168 L108.845169,48.2278651 C108.845169,48.2278651 107.714316,49.4908989 105.9984,49.4908989 C104.081085,49.4908989 102.730708,48.0235955 102.730708,46.1103371 C102.730708,44.1788764 104.081085,42.7682022 105.943015,42.7682022 C107.512917,42.7682022 108.498764,43.8451685 108.498764,43.8451685 L109.338596,42.583146 C109.338596,42.583146 108.18861,41.2108989 105.870512,41.2108989 C102.968358,41.2108989 100.926176,43.3435955 100.926176,46.1295505 L100.926176,46.1295505 Z M111.384806,50.8247191 L113.153085,50.8247191 L113.153085,46.4248314 C113.153085,45.9798876 113.190344,45.5521348 113.300106,45.1810112 C113.682764,43.825955 114.833757,42.8602247 116.221393,42.8602247 C117.700666,42.8602247 117.974568,43.9007865 117.974568,45.2184269 L117.974568,50.8247191 L119.742847,50.8247191 L119.742847,44.8098876 C119.742847,42.4162921 118.740889,41.2108989 116.568806,41.2108989 C114.723994,41.2108989 113.555882,42.3970786 113.153085,43.3061798 L113.116834,43.3061798 C113.116834,43.3061798 113.153085,42.9724719 113.153085,42.5275281 L113.153085,37.7211236 L111.384806,37.7211236 L111.384806,50.8247191 Z" id="Fill-11"></path>
            <path d="M41.9299805,33.0325281 L43.7345119,33.0325281 L43.7345119,19.9279213 L41.9299805,19.9279213 L41.9299805,33.0325281 Z M46.6940644,33.0325281 L48.4623441,33.0325281 L48.4623441,28.6326404 C48.4623441,28.1684831 48.4985958,27.7417416 48.6083581,27.370618 C48.9920224,26.0155618 50.1248896,25.0690449 51.5306518,25.0690449 C53.0099245,25.0690449 53.2838266,26.1085955 53.2838266,27.4262359 L53.2838266,33.0325281 L55.0521063,33.0325281 L55.0521063,27.0176966 C55.0521063,24.6241011 54.0491413,23.4187078 51.8770574,23.4187078 C49.8691133,23.4187078 48.7724979,24.7535393 48.4079665,25.5696067 L48.3717147,25.5696067 C48.3717147,25.5696067 48.4079665,25.2551123 48.4079665,24.8839887 L48.4079665,23.6411798 L46.6940644,23.6411798 L46.6940644,33.0325281 Z M56.7700364,31.883764 C56.7700364,31.883764 58.0106518,33.2560112 60.2733651,33.2560112 C62.300442,33.2560112 63.6135609,32.0880337 63.6135609,30.5287078 C63.6135609,27.4454494 58.8665958,27.8175842 58.8665958,26.1267977 C58.8665958,25.3097191 59.6157986,24.9760112 60.3831273,24.9760112 C61.8442742,24.9760112 62.6649735,25.8112921 62.6649735,25.8112921 L63.3759105,24.4572472 C63.3759105,24.4572472 62.4283301,23.4187078 60.4012532,23.4187078 C58.557449,23.4187078 57.0620644,24.3824157 57.0620644,26.0903932 C57.0620644,29.1544382 61.8080224,28.8015168 61.8080224,30.5287078 C61.8080224,31.2901685 61.0406938,31.6987078 60.2733651,31.6987078 C58.6662042,31.6987078 57.6279944,30.6025281 57.6279944,30.6025281 L56.7700364,31.883764 Z M65.897421,29.6003932 C65.897421,32.7362359 68.2497567,33.1073595 69.4359944,33.1073595 C69.8015329,33.1073595 70.0563021,33.0699438 70.0563021,33.0699438 L70.0563021,31.4752247 C70.0563021,31.4752247 69.8921623,31.5126404 69.6363861,31.5126404 C68.9617007,31.5126404 67.6657007,31.2719663 67.6657007,29.3961236 L67.6657007,25.2166854 L69.8921623,25.2166854 L69.8921623,23.7716292 L67.6657007,23.7716292 L67.6657007,21.0615168 L65.9517986,21.0615168 L65.9517986,23.7716292 L64.6920504,23.7716292 L64.6920504,25.2166854 L65.897421,25.2166854 L65.897421,29.6003932 Z M71.8477427,21.7643258 L73.6341483,21.7643258 L73.6341483,19.9289326 L71.8477427,19.9289326 L71.8477427,21.7643258 Z M71.8658686,33.0325281 L73.6341483,33.0325281 L73.6341483,23.6411798 L71.8658686,23.6411798 L71.8658686,33.0325281 Z M76.6118266,29.6003932 C76.6118266,32.7362359 78.9641623,33.1073595 80.1504,33.1073595 C80.5159385,33.1073595 80.7717147,33.0699438 80.7717147,33.0699438 L80.7717147,31.4752247 C80.7717147,31.4752247 80.6065679,31.5126404 80.3517986,31.5126404 C79.6761063,31.5126404 78.3801063,31.2719663 78.3801063,29.3961236 L78.3801063,25.2166854 L80.6065679,25.2166854 L80.6065679,23.7716292 L78.3801063,23.7716292 L78.3801063,21.0615168 L76.6662042,21.0615168 L76.6662042,23.7716292 L75.407463,23.7716292 L75.407463,25.2166854 L76.6118266,25.2166854 L76.6118266,29.6003932 Z M82.4523861,29.6560112 C82.4523861,32.1436517 83.5278546,33.2560112 85.6093091,33.2560112 C87.4168616,33.2560112 88.6222322,32.0324157 89.0058965,31.1041011 L89.0421483,31.1041011 C89.0421483,31.1020786 89.0058965,31.399382 89.0058965,31.7897191 L89.0058965,33.0325281 L90.7197986,33.0325281 L90.7197986,23.6411798 L88.9515189,23.6411798 L88.9515189,28.0400562 C88.9515189,29.8976966 87.8367777,31.5874719 85.9557147,31.5874719 C84.476442,31.5874719 84.2206658,30.5479213 84.2206658,29.2484831 L84.2206658,23.6411798 L82.4523861,23.6411798 L82.4523861,29.6560112 Z M93.697477,29.6003932 C93.697477,32.7362359 96.0498126,33.1073595 97.2360504,33.1073595 C97.6005819,33.1073595 97.8563581,33.0699438 97.8563581,33.0699438 L97.8563581,31.4752247 C97.8563581,31.4752247 97.6922182,31.5126404 97.436442,31.5126404 C96.7607497,31.5126404 95.4657567,31.2719663 95.4657567,29.3961236 L95.4657567,25.2166854 L97.6922182,25.2166854 L97.6922182,23.7716292 L95.4657567,23.7716292 L95.4657567,21.0615168 L93.7518546,21.0615168 L93.7518546,23.7716292 L92.4921063,23.7716292 L92.4921063,25.2166854 L93.697477,25.2166854 L93.697477,29.6003932 Z M99.026484,28.3363483 C99.026484,31.1223033 101.014288,33.2560112 103.917449,33.2560112 C106.126792,33.2560112 107.494288,31.9211798 107.494288,31.9211798 L106.765225,30.6025281 C106.765225,30.6025281 105.616246,31.6987078 104.027211,31.6987078 C102.383799,31.6987078 100.940778,30.658146 100.850148,28.5962359 L107.585924,28.5962359 C107.585924,28.5962359 107.640302,28.0582584 107.640302,27.8175842 C107.640302,25.3845505 106.25468,23.4187078 103.643547,23.4187078 C101.014288,23.4187078 99.026484,25.3471348 99.026484,28.3363483 L99.026484,28.3363483 Z M100.904526,27.2432022 C101.160302,25.7000562 102.25591,24.8455618 103.607295,24.8455618 C104.79454,24.8455618 105.780386,25.6262359 105.835771,27.2432022 L100.904526,27.2432022 Z M109.997673,29.6003932 C109.997673,32.7362359 112.350008,33.1073595 113.536246,33.1073595 C113.900778,33.1073595 114.156554,33.0699438 114.156554,33.0699438 L114.156554,31.4752247 C114.156554,31.4752247 113.992414,31.5126404 113.736638,31.5126404 C113.061952,31.5126404 111.765952,31.2719663 111.765952,29.3961236 L111.765952,25.2166854 L113.992414,25.2166854 L113.992414,23.7716292 L111.765952,23.7716292 L111.765952,21.0615168 L110.05205,21.0615168 L110.05205,23.7716292 L108.792302,23.7716292 L108.792302,25.2166854 L109.997673,25.2166854 L109.997673,29.6003932 Z M120.966847,33.0325281 L122.717001,33.0325281 L122.717001,25.2166854 L124.908218,25.2166854 L124.908218,23.7716292 L122.717001,23.7716292 L122.717001,23.3630899 C122.717001,21.6156741 123.97675,21.3932022 124.652442,21.3932022 C124.926344,21.3932022 125.10861,21.4296067 125.10861,21.4296067 L125.10861,19.8915168 C125.10861,19.8915168 124.834708,19.8358989 124.432917,19.8358989 C123.264806,19.8358989 120.966847,20.2252247 120.966847,23.3256741 L120.966847,23.7716292 L119.816861,23.7716292 L119.816861,25.2166854 L120.966847,25.2166854 L120.966847,33.0325281 Z M125.750064,28.318146 C125.750064,31.1779213 127.975519,33.2560112 130.731659,33.2560112 C133.488806,33.2560112 135.71426,31.1779213 135.71426,28.318146 C135.71426,25.4775842 133.488806,23.4187078 130.731659,23.4187078 C127.975519,23.4187078 125.750064,25.4775842 125.750064,28.318146 L125.750064,28.318146 Z M127.554596,28.318146 C127.554596,26.3684831 128.998624,24.9760112 130.731659,24.9760112 C132.483827,24.9760112 133.908722,26.3684831 133.908722,28.318146 C133.908722,30.2870224 132.483827,31.6987078 130.731659,31.6987078 C128.998624,31.6987078 127.554596,30.2870224 127.554596,28.318146 L127.554596,28.318146 Z M131.536246,21.8017416 L132.994372,21.8017416 L132.994372,19.9289326 L131.536246,19.9289326 L131.536246,21.8017416 Z M128.488078,21.8017416 L129.946204,21.8017416 L129.946204,19.9289326 L128.488078,19.9289326 L128.488078,21.8017416 Z M137.632582,33.0325281 L139.400861,33.0325281 L139.400861,29.1898314 C139.400861,28.6144382 139.456246,28.0390449 139.620386,27.5010674 C140.040302,26.1085955 141.080526,25.2915168 142.212386,25.2915168 C142.486288,25.2915168 142.722931,25.3471348 142.722931,25.3471348 L142.722931,23.5673595 C142.722931,23.5673595 142.504414,23.5299438 142.266764,23.5299438 C140.843882,23.5299438 139.7664,24.6058989 139.346484,25.978146 L139.310232,25.978146 C139.310232,25.9801685 139.346484,25.6646629 139.346484,25.2753371 L139.346484,23.6411798 L137.632582,23.6411798 L137.632582,33.0325281 Z" id="Fill-13"></path>
        </g>
    </g>
</svg>