<svg xmlns="http://www.w3.org/2000/svg" width="391.76" height="92.59" viewBox="0 0 391.76 92.59">
  <g id="Logga_Nationella_sprakbanken" transform="translate(-110 -350)">
    <path id="Path_1" data-name="Path 1" d="M136.73,425.55a10.571,10.571,0,0,0-2.34-3.44,18.407,18.407,0,0,0-3.82-2.87,54.07,54.07,0,0,0-5.24-2.65c-1.39-.63-2.67-1.27-3.85-1.93a15.228,15.228,0,0,1-3.03-2.15,8.915,8.915,0,0,1-1.96-2.59,7.5,7.5,0,0,1-.69-3.31,8.205,8.205,0,0,1,.69-3.38,8.1,8.1,0,0,1,1.99-2.71,9.158,9.158,0,0,1,3.16-1.83,12.507,12.507,0,0,1,4.2-.66,14.525,14.525,0,0,1,4.95.82,16.563,16.563,0,0,1,4.07,2.08l1.7-2.97a18.323,18.323,0,0,0-4.7-2.27,18.11,18.11,0,0,0-5.71-.88,16.218,16.218,0,0,0-5.65.95,13.359,13.359,0,0,0-4.39,2.59,11.633,11.633,0,0,0-2.84,3.82,11.082,11.082,0,0,0-1.01,4.7,10.754,10.754,0,0,0,.79,4.26,10.927,10.927,0,0,0,2.27,3.38,16.626,16.626,0,0,0,3.63,2.75q2.145,1.23,4.8,2.43c1.64.76,3.09,1.48,4.36,2.18a15.419,15.419,0,0,1,3.19,2.27,8.828,8.828,0,0,1,1.96,2.71,8.572,8.572,0,0,1,.66,3.5,8.805,8.805,0,0,1-.73,3.57,8.032,8.032,0,0,1-2.08,2.87,10.11,10.11,0,0,1-3.25,1.89,12.08,12.08,0,0,1-4.17.69,17.139,17.139,0,0,1-6.15-1.14,29.538,29.538,0,0,1-5.84-3.03l-1.7,3.09a27.408,27.408,0,0,0,6.34,3.16,21.469,21.469,0,0,0,7.04,1.14,16.228,16.228,0,0,0,5.52-.92,13.815,13.815,0,0,0,4.48-2.59,12.124,12.124,0,0,0,3.03-4.01,11.907,11.907,0,0,0,1.1-5.18,10.981,10.981,0,0,0-.78-4.34Zm29.1-10.38a10.423,10.423,0,0,1-2.71,3.94,13.024,13.024,0,0,1-4.45,2.59,18.208,18.208,0,0,1-6.12.95,28.218,28.218,0,0,1-3-.16c-1.03-.1-1.97-.2-2.81-.28V398.86c.97-.13,2-.23,3.09-.32s2.19-.13,3.28-.13a16.469,16.469,0,0,1,5.9.98,12.69,12.69,0,0,1,4.26,2.59,10.728,10.728,0,0,1,2.59,3.72,11.4,11.4,0,0,1,.88,4.45,13.5,13.5,0,0,1-.91,5.02Zm3.59-10.83a13.182,13.182,0,0,0-3.31-4.67,16.141,16.141,0,0,0-5.55-3.22,23.178,23.178,0,0,0-7.83-1.2c-1.73,0-3.37.05-4.92.16s-3.09.26-4.61.47v45.95h3.53V425.36c.8.08,1.74.17,2.81.25s2.03.13,2.87.13a23.092,23.092,0,0,0,7.64-1.17,16.7,16.7,0,0,0,5.68-3.25,13.785,13.785,0,0,0,3.57-4.99,16.149,16.149,0,0,0,1.23-6.37,14.41,14.41,0,0,0-1.11-5.62Zm25.69,12.91q-3.63,3-10.64,3c-.97,0-1.98-.04-3.03-.13s-1.98-.17-2.78-.25V398.98a39.758,39.758,0,0,1,6.69-.57,18.452,18.452,0,0,1,5.78.82,12.727,12.727,0,0,1,4.2,2.24,9.046,9.046,0,0,1,2.56,3.38,10.6,10.6,0,0,1,.85,4.29,9.967,9.967,0,0,1-3.63,8.11Zm10.13,24.59L191.8,422.27a15.143,15.143,0,0,0,7.95-5.05,13.007,13.007,0,0,0,2.78-8.27,13.309,13.309,0,0,0-1.14-5.55,11.7,11.7,0,0,0-3.35-4.32,15.964,15.964,0,0,0-5.49-2.81,25.888,25.888,0,0,0-7.57-1.01c-1.81,0-3.48.07-5.02.22s-3.17.33-4.89.54v45.82h3.6V423.03c.76.08,1.67.15,2.75.19s2.03.06,2.87.06c.71,0,1.41-.02,2.08-.06s1.33-.1,1.96-.19l12.62,18.81h4.29Zm23.2-48.26a3.7,3.7,0,0,1-2.81,1.17,3.643,3.643,0,0,1-2.75-1.17,4.175,4.175,0,0,1-1.1-3,4.112,4.112,0,0,1,1.1-2.97,3.674,3.674,0,0,1,2.75-1.14,3.745,3.745,0,0,1,2.81,1.14,4.071,4.071,0,0,1,1.1,2.97,4.185,4.185,0,0,1-1.1,3Zm6.66,31.09H216.04l9.53-22.66,9.53,22.66Zm-4.74-38.53a6.515,6.515,0,0,0-11.23,4.51,6.312,6.312,0,0,0,1.42,4.1,5.924,5.924,0,0,0,3.82,2.15l-19.31,44.94h3.72l5.93-14.14h21.71l6,14.14h3.79l-19.38-44.88a6.31,6.31,0,0,0,3.85-2.18,6.217,6.217,0,0,0,1.45-4.13,6.3,6.3,0,0,0-1.77-4.51Zm50.18,55.7-23.67-23.8,22.79-22.47h-4.54l-21.65,21.52V395.57h-3.53v46.26h3.53V418.98l22.41,22.85h4.66Zm26.83-8.78a9.023,9.023,0,0,1-2.43,3.19,11.873,11.873,0,0,1-4.01,2.15,17.658,17.658,0,0,1-5.55.79c-1.3,0-2.62-.05-3.94-.16s-2.56-.24-3.69-.41V419.56c.97-.08,2-.13,3.09-.13h2.9q7.26,0,10.86,2.71a8.334,8.334,0,0,1,3.6,6.94,9.875,9.875,0,0,1-.83,3.98Zm-1.08-22.15a8.163,8.163,0,0,1-2.49,2.97,12.886,12.886,0,0,1-4.23,1.99,22.574,22.574,0,0,1-6.09.73h-2.87c-.95,0-1.9-.04-2.87-.13V398.73a42.1,42.1,0,0,1,7.07-.57q6.315,0,9.31,2.56a8.19,8.19,0,0,1,3,6.53,8.459,8.459,0,0,1-.83,3.66Zm2.97,11.08q-2.6-3.12-8.14-4.13a14,14,0,0,0,7.16-4.04,10.166,10.166,0,0,0,2.43-6.94,10.7,10.7,0,0,0-.98-4.48,10.332,10.332,0,0,0-2.97-3.76,14.907,14.907,0,0,0-5.02-2.56,24.3,24.3,0,0,0-7.2-.95c-1.89,0-3.66.07-5.3.22s-3.32.33-5.05.54v45.63c1.72.21,3.48.39,5.27.54s3.63.22,5.52.22a22.852,22.852,0,0,0,7.32-1.07,15.9,15.9,0,0,0,5.27-2.87,11.939,11.939,0,0,0,3.19-4.17,11.816,11.816,0,0,0,1.07-4.89,10.98,10.98,0,0,0-2.57-7.29Zm33.39,2.68H323.59l9.53-22.66,9.53,22.66Zm11.11,17.17L333.5,394.82h-.63l-20.26,47.02h3.72l5.93-14.14h21.71l6,14.14Zm38.62.56V395.57h-3.53v38.12L358.3,394.87l-.82.19v46.77h3.47V403.27l30.8,39.26.63-.13Zm38.44-.56-23.67-23.8,22.79-22.47H425.4l-21.65,21.52V395.57h-3.53v46.26h3.53V418.98l22.41,22.85h4.66Zm29.79,0v-3.22h-22.6V419.94H458.4v-3.16H438.01V398.73h22.6v-3.16H434.48v46.26h26.13Zm41.15.56V395.57h-3.53v38.12l-30.55-38.82-.82.19v46.77h3.47V403.27l30.8,39.26.63-.13Z"/>
    <path id="Path_2" data-name="Path 2" d="M136.69,377.12V350.44h-2.01v21.72l-17.41-22.12-.47.11V376.8h1.98V354.83l17.55,22.37.36-.08Zm19.24-10.11H145.07l5.43-12.91,5.43,12.91Zm6.33,9.78L150.71,350h-.36l-11.54,26.79h2.12l3.38-8.06h12.37l3.42,8.06Z" fill="#eb6209"/>
    <path id="Path_3" data-name="Path 3" d="M180.45,352.23v-1.8H160.53v1.8h8.95v24.56h2.05V352.23Zm4.57,24.56V350.43h-2.01v26.36h2.01Zm26.67-8.54a11.431,11.431,0,0,1-2.25,3.72,10.24,10.24,0,0,1-3.43,2.48,11.059,11.059,0,0,1-8.74,0,10.277,10.277,0,0,1-3.43-2.48,11.537,11.537,0,0,1-2.25-3.72,12.971,12.971,0,0,1-.81-4.62,13.121,13.121,0,0,1,.81-4.64,11.525,11.525,0,0,1,2.25-3.74,10.379,10.379,0,0,1,3.43-2.48,11.059,11.059,0,0,1,8.74,0,10.277,10.277,0,0,1,3.43,2.48,11.525,11.525,0,0,1,2.25,3.74,13.081,13.081,0,0,1,.81,4.64,12.931,12.931,0,0,1-.81,4.62Zm1.99-10.03a13.182,13.182,0,0,0-2.77-4.32,12.58,12.58,0,0,0-4.14-2.84,12.722,12.722,0,0,0-5.07-1.02,12.878,12.878,0,0,0-9.29,3.86,13.336,13.336,0,0,0-2.81,4.32,14.872,14.872,0,0,0-.01,10.8,13.2,13.2,0,0,0,2.77,4.3,12.378,12.378,0,0,0,4.14,2.82,12.89,12.89,0,0,0,5.07,1.01,13.064,13.064,0,0,0,5.12-1.01,12.707,12.707,0,0,0,4.17-2.82,13.353,13.353,0,0,0,2.81-4.3,14.021,14.021,0,0,0,1.02-5.39,14.347,14.347,0,0,0-1.01-5.41Zm24.31,18.9V350.44h-2.01v21.72l-17.41-22.12-.47.11V376.8h1.98V354.83l17.55,22.37.36-.08Zm19.35-.33v-1.83H244.47V364.31h11.62v-1.8H244.47V352.22h12.87v-1.8H242.45v26.36h14.89Zm18.45,0v-1.83H262.92V350.43h-2.01v26.36h14.88Zm16.65,0v-1.83H279.57V350.43h-2.01v26.36h14.88Zm16.54-9.78H298.12l5.43-12.91,5.43,12.91Zm6.33,9.78L303.77,350h-.36l-11.54,26.79h2.12l3.38-8.06h12.37l3.42,8.06Z" fill="#eb6209"/>
  </g>
</svg>
